<svg xmlns="http://www.w3.org/2000/svg" viewBox="0 0 140 140">
  <circle fill="#9F7AEA" cx="70" cy="70" r="64" />
  <path opacity=".1" d="m39.6330605 95.0317307c1.6018066 1.9404907 3.3862915 3.7247314 5.3267822 5.3267212l33.1163292 33.1163406c28.9085083-3.6428833 51.7985229-26.5547562 55.4081421-55.4734573l-33.6213379-33.6213341-.0100098.0063477c-3.7003784-4.3093262-8.3058472-7.8182373-13.5379639-10.2047729-4.9699707-2.2700195-10.4899902-3.5300293-16.3099976-3.5300293-2.1599731 0-4.2700195.1700439-6.3300133.5100098-10.0199585 1.6099854-18.7699585 7.0100098-24.75 14.6900024-1.8499756 2.3900146-3.4400024 5-4.7199707 7.7700195-1.2700195 2.7799683-2.2299805 5.7299805-2.8300171 8.8200073-.4799805 2.4500084-.7299805 4.9699669-.7299805 7.5599937 0 9.5072021 3.3728027 18.2276611 8.987854 25.0299683z" />

  <path fill="#FAF5FF" d="m109.350647 70c0 7.343277-2.0137329 14.2180786-5.5119781 20.1012039 0 0 0 .0060883-.0060883.0060883-1.8129959 3.0541306-4.033638 5.828392-6.5766678 8.2801819-2.8533859 2.7377625-6.1143494 5.0496368-9.6916885 6.8322144-5.2869492 2.6465224-11.2552186 4.1309966-17.5642243 4.1309966-21.7316856 0-39.350647-17.6190033-39.350647-39.3506851 0-2.5856552.2493877-5.1104965.7239494-7.5562363 1.1985111-6.1690483 3.8389797-11.81493 7.5500698-16.5907784l.0060921-.0060883c5.9744339-7.6717949 14.7230873-13.0743027 24.7432594-14.686552 2.0624524-.3406963 4.1735516-.5110263 6.3272763-.5110263 5.8223343 0 11.3464966 1.2654247 16.31707 3.528656 5.7005386 2.6038895 10.6711197 6.5280151 14.5222015 11.3769073 4.8002777 6.0413094 7.8543396 13.5305939 8.4140854 21.7073631.0669098.9064942.0972901 1.8190766.0972901 2.7377549z" />

  <g fill="#44337A">
    <path d="m65.676506 56.3355026-18.6487007-3.1631164.2055702-1.1989556 18.4900666 3.1357842 14.1198272-1.3136215-4.9713974-21.9317589 1.1864853-.268549 5.2779618 23.2828121z" />
    <path d="m95.3301849 99.5145798h-1.216774v-10.6343537l-7.1001663-21.2490997-12.8284836 2.6224899-16.4318847 18.7145386-.9143677-.8032608 16.701622-19.0211105 14.2852936-2.9207535 7.5047607 22.4587555z" />
    <path d="m92.157692 56.612232h11.911454v1.216455h-11.911454z" transform="matrix(.989 -.151 .151 .989 -7.512 15.463)" />
    <path d="m49.2517509 90.9513702-6.3257141-6.764183-5.4407577-17.2422867-.2192345-7.4622841 1.2161865-.0356483.216858 7.3773269 5.3035125 16.7331086 6.13797 6.5633697z" />
    <path d="m63.0474014 102.9772034-.0891227-1.2132187 20.4548301-1.1722412 11.8380585-2.0550995.2079468 1.1989517-11.8974762 2.062233z" />
    <path d="m44.704567 46.1461525-.9987336-.6951332 2.8868828-4.1500054 13.579464-8.8299789 9.5744247-.3927193.0499039 1.2155915-9.2411156.3796501-13.0999985 8.5174637z" />
  </g>

  <g fill="#44337A">
    <path d="m86.31707 34.1779747-.2008133.3832893-9.6673355.742218s-.0608215-.0060883-.1824722-.0243225c-1.7278824-.2372818-15.3801231-2.1172218-15.9034042-2.2084618-.5596733-.0912704 3.0663109-1.6730709 3.0663109-1.6730709l.2433701-.2372818c2.0624503-.3406963 4.1735495-.5110263 6.3272742-.5110263 5.8223343 0 11.3464966 1.2654247 16.31707 3.528656z" />
    <path d="m48.1952362 52.7277908-10.0991898 14.1998062-6.7227421-4.4838333c1.1985111-6.1690483 3.8389797-11.81493 7.5500698-16.5907784l.0060921-.0060883c3.4435081-1.7764893 7.8665161-3.984951 8.0855293-4.0944557l.0060883-.0060883z" />
    <path d="m109.2533569 67.2622452-5.9378967-10.9388847-2.4761887-10.7684784c4.8002778 6.0413093 7.8543396 13.5305938 8.4140854 21.7073631z" />
    <path d="m104.3984146 86.1831665-.5597458 3.9180374s0 .0060883-.0060883.0060883c-1.8129959 3.0541306-4.033638 5.828392-6.5766678 8.2801819-2.8533859 2.7377625-6.1143494 5.0496368-9.6916885 6.8322144l-4.106636-4.0214539 11.2613144-12.4172287z" />
    <path d="m41.1540527 95.1343079 2.310196-11.2622071 15.7382164 3.7540665 6.497425 14.8718948-11.262207 3.4652939z" />
    <path d="m78.7654877 46.2893715-14.3730774 9.2091293 5.8009643 18.3787956h19.5482865l4.0224533-16.0978813z" />
  </g>
</svg>
